<?xml version="1.0" encoding="UTF-8"?>
<svg width="250px" height="250px" viewBox="0 0 250 250" version="1.1" xmlns="http://www.w3.org/2000/svg" xmlns:xlink="http://www.w3.org/1999/xlink">
    <title>Group</title>
    <g id="Page-1" stroke="none" stroke-width="1" fill="none" fill-rule="evenodd">
        <g id="Group">
            <g id="icon" transform="translate(43, 19)" fill-rule="nonzero">
                <path d="M10.4918023,64.0067947 C13.1803404,64.0067947 15.8686799,65.030674 17.9176922,67.0763972 L81.9067833,131.074356 C83.9660479,133.11341 84.9972605,135.798313 85.0009634,138.486807 C85.0046465,141.175312 83.9803125,143.866663 81.9311637,145.91662 L17.9328506,209.923758 C15.8767084,211.979344 13.1968917,212.9979 10.5093439,213 C7.8272757,213 5.13288726,211.965922 3.07872451,209.93244 C1.02404074,207.874368 0,205.185749 0,202.496976 C0,199.808536 1.02360129,197.121226 3.06986683,195.074679 L59.6439779,138.507508 L3.06814035,81.9238675 C1.02407822,79.8760583 0,77.1873727 0,74.4985836 C0,71.8100627 1.02368378,69.122737 3.0699994,67.0760343 C5.11622419,65.0303674 7.80346548,64.0067947 10.4918023,64.0067947 Z" id="Path" stroke="#85FF6D" fill="#85FF6D"></path>
                <path d="M154.487155,0 C157.176055,0 159.864718,1.02396886 161.913927,3.06998328 C163.960189,5.11736806 164.9844,7.80537348 164.9844,10.4939845 C164.9844,13.1825298 163.960234,15.8705859 161.913794,17.9183581 L105.353952,74.5007406 L161.927873,131.083083 C163.975311,133.130593 165,135.818791 165,138.507538 C165,141.196219 163.975356,143.884468 161.919233,145.940831 C159.866235,147.973977 157.189191,149.007128 154.504256,149.009225 C151.817601,149.009225 149.121224,147.989101 147.064542,145.932135 L83.0655804,81.9238675 C81.0215182,79.8760583 79.99756,77.1873727 79.99756,74.4985836 C79.99756,71.8100627 81.0211238,69.122737 83.0670699,67.0764038 L147.064848,3.06932112 C149.110934,1.02364573 151.798472,0 154.487155,0 Z" id="Path" stroke="#264D68" fill="#264D68"></path>
            </g>
            <rect id="Rectangle" x="0" y="0" width="250" height="250"></rect>
        </g>
    </g>
</svg>