<?xml version="1.0" encoding="UTF-8"?>
<svg width="16px" height="18px" viewBox="0 0 16 18" version="1.1" xmlns="http://www.w3.org/2000/svg" xmlns:xlink="http://www.w3.org/1999/xlink">
    <title>icon</title>
    <g id="Page-1" stroke="none" stroke-width="1" fill="none" fill-rule="evenodd">
        <g id="icon" transform="translate(1, 1)" fill="#0D0D0D" fill-rule="nonzero" stroke="#0D0D0D" stroke-width="0.187793427">
            <path d="M0.90516484,3.33333333 C1.13711452,3.33333333 1.36904706,3.4203785 1.54582259,3.59429578 L7.06638748,9.03508625 C7.24404751,9.20843656 7.33301387,9.43669375 7.33333333,9.66525624 C7.33365108,9.89381966 7.24527817,10.122625 7.06849087,10.2969023 L1.54713036,15.7384731 C1.36973971,15.9132289 1.13854246,15.9998215 0.906678212,16 C0.67528672,16 0.442832313,15.9120878 0.265612437,15.7392112 C0.0883476115,15.5642441 0,15.335671 0,15.1070848 C0,14.8785269 0.0883096986,14.650065 0.264848254,14.4760777 L5.14569663,9.66701613 L0.264699305,4.8565544 C0.088350845,4.68245977 0,4.453881 0,4.22529342 C0,3.99672865 0.0883168153,3.76826549 0.264859692,3.59426493 C0.441394731,3.42035243 0.673232528,3.33333333 0.90516484,3.33333333 Z" id="Path"></path>
            <path d="M13.0930355,0 C13.3250124,0 13.5569688,0.0870434178 13.7337582,0.260966761 C13.9102934,0.435006594 13.9986542,0.663502975 13.9986542,0.892050832 C13.9986542,1.12059311 13.9102973,1.3490938 13.7337467,1.52316656 L8.85421416,6.3330042 L13.7349614,11.1428384 C13.911598,11.3168889 14,11.5454017 14,11.7739611 C14,12.0025149 13.9116019,12.231032 13.734216,12.405835 C13.5570997,12.5786645 13.3261456,12.6664884 13.0945108,12.6666667 C12.8627276,12.6666667 12.6301057,12.5799501 12.4526716,12.4050958 L6.93135102,6.96401395 C6.75500562,6.78993804 6.66666667,6.56138384 6.66666667,6.33282084 C6.66666667,6.10428064 6.7549716,5.87584204 6.93147953,5.7018916 L12.452698,0.260910474 C12.629218,0.0870159498 12.8610773,0 13.0930355,0 Z" id="Path"></path>
        </g>
    </g>
</svg>