<?xml version="1.0" encoding="UTF-8"?>
<svg width="170px" height="218px" viewBox="0 0 170 218" version="1.1" xmlns="http://www.w3.org/2000/svg" xmlns:xlink="http://www.w3.org/1999/xlink">
    <title>Group</title>
    <g id="Page-1" stroke="none" stroke-width="1" fill="none" fill-rule="evenodd">
        <g id="Artboard" transform="translate(-28, -2)" fill-rule="nonzero" stroke-width="5">
            <g id="Group" transform="translate(33, 7)">
                <path d="M7.99180229,61.5067947 C10.6803404,61.5067947 13.3686799,62.530674 15.4176922,64.5763972 L79.4067833,128.574356 C81.4660479,130.61341 82.4972605,133.298313 82.5009535,135.986807 C82.5046465,138.675312 81.4803125,141.366663 79.4311637,143.41662 L15.4328506,207.423758 C13.3767084,209.479344 10.6968917,210.4979 8.00934385,210.5 C5.3272757,210.5 2.63288726,209.465922 0.578724511,207.43244 C-1.47595926,205.374368 -2.5,202.685749 -2.5,199.996976 C-2.5,197.308536 -1.47639871,194.621226 0.569866834,192.574679 L57.1439779,136.007508 L0.568140354,79.4238675 C-1.47592178,77.3760583 -2.49988,74.6873727 -2.49988,71.9985836 C-2.49988,69.3100627 -1.47631622,66.622737 0.569999405,64.5760343 C2.61622419,62.5303674 5.30346548,61.5067947 7.99180229,61.5067947 Z" id="Path" stroke="#85FF6D" fill="#85FF6D"></path>
                <path d="M151.987155,-2.5 C154.676055,-2.5 157.364718,-1.47603114 159.413927,0.569983276 C161.460189,2.61736806 162.4844,5.30537348 162.4844,7.99398446 C162.4844,10.6825298 161.460234,13.3705859 159.413794,15.4183581 L102.853952,72.0007406 L159.427873,128.583083 C161.475311,130.630593 162.5,133.318791 162.5,136.007538 C162.5,138.696219 161.475356,141.384468 159.419233,143.440831 C157.366235,145.473977 154.689191,146.507128 152.004256,146.509225 C149.317601,146.509225 146.621224,145.489101 144.564542,143.432135 L80.5655804,79.4238675 C78.5215182,77.3760583 77.49756,74.6873727 77.49756,71.9985836 C77.49756,69.3100627 78.5211238,66.622737 80.5670699,64.5764038 L144.564848,0.569321123 C146.610934,-1.47635427 149.298472,-2.5 151.987155,-2.5 Z" id="Path" stroke="#264D68" fill="#264D68"></path>
            </g>
        </g>
    </g>
</svg>